<svg id="svg" version="1.1" xmlns="http://www.w3.org/2000/svg" xmlns:xlink="http://www.w3.org/1999/xlink" width="260" height="250" viewBox="0, 0, 400,372.9331823329558"><g id="svgg"><path id="path0" d="M255.333 156.789 C 254.489 156.888,252.277 157.495,252.092 157.677 C 252.005 157.763,251.840 157.833,251.726 157.833 C 250.081 157.833,246.575 161.654,245.302 164.833 C 244.572 166.656,244.579 166.667,246.419 166.667 C 248.860 166.667,250.949 165.961,253.000 164.444 C 254.067 163.654,254.008 163.712,255.085 162.417 C 255.543 161.867,255.954 161.379,256.000 161.333 C 256.328 161.005,256.811 160.167,256.672 160.167 C 256.565 160.167,256.500 159.506,256.500 158.417 C 256.500 156.486,256.609 156.638,255.333 156.789 M238.283 157.939 C 237.909 158.313,238.330 160.854,238.975 162.119 C 239.405 162.961,241.546 165.167,241.935 165.167 C 241.988 165.167,242.231 165.307,242.474 165.478 C 243.796 166.409,244.000 166.000,242.874 164.680 C 242.437 164.168,241.976 163.600,241.849 163.417 C 241.560 163.001,242.565 164.073,243.093 164.745 C 243.607 165.398,243.639 165.334,243.678 163.575 C 243.732 161.118,242.008 158.967,239.338 158.162 C 239.106 158.092,238.800 157.987,238.658 157.929 C 238.516 157.871,238.347 157.875,238.283 157.939 M110.250 160.494 C 109.975 160.565,109.300 160.719,108.750 160.836 C 105.720 161.478,100.101 163.951,98.803 165.215 C 98.682 165.333,98.284 165.651,97.919 165.923 C 96.007 167.345,94.011 169.340,92.589 171.252 C 92.318 171.618,91.999 172.015,91.882 172.136 C 91.461 172.569,89.265 176.613,88.811 177.792 C 88.732 177.998,88.599 178.335,88.517 178.542 C 88.056 179.695,87.529 181.692,87.141 183.750 C 86.847 185.316,86.847 191.377,87.142 192.833 C 88.046 197.293,88.806 199.318,91.026 203.177 C 91.149 203.391,91.306 203.645,91.374 203.742 C 96.377 210.783,102.357 214.667,110.417 216.110 L 111.250 216.259 111.194 215.171 C 111.138 214.092,110.859 213.500,110.406 213.500 C 109.335 213.500,109.163 211.940,109.503 205.333 C 109.590 203.637,109.774 200.075,109.911 197.417 C 110.377 188.358,110.423 188.678,108.580 188.258 C 107.940 188.112,107.079 187.915,106.667 187.819 C 105.270 187.497,104.990 186.983,104.675 184.167 C 104.437 182.046,104.069 179.006,103.766 176.667 C 102.404 166.135,102.245 166.786,106.263 166.415 C 111.188 165.961,111.058 166.054,111.167 162.925 C 111.212 161.608,111.194 160.566,111.125 160.609 C 111.056 160.651,111.000 160.607,111.000 160.510 C 111.000 160.312,110.953 160.311,110.250 160.494 M248.850 163.843 C 248.447 164.208,248.073 164.461,248.018 164.407 C 247.964 164.353,248.050 164.235,248.211 164.145 C 248.371 164.056,248.708 163.801,248.959 163.580 C 249.211 163.358,249.454 163.178,249.500 163.179 C 249.546 163.180,249.253 163.479,248.850 163.843 M116.458 164.958 C 117.398 164.987,118.935 164.987,119.875 164.958 C 120.815 164.928,120.046 164.904,118.167 164.904 C 116.287 164.904,115.519 164.928,116.458 164.958 M122.514 165.063 C 122.684 165.217,124.000 165.831,124.000 165.757 C 124.000 165.662,122.742 165.000,122.562 165.000 C 122.497 165.000,122.476 165.028,122.514 165.063 M124.238 167.242 C 124.245 167.549,124.306 167.766,124.375 167.724 C 124.544 167.620,124.534 166.874,124.363 166.768 C 124.287 166.722,124.231 166.935,124.238 167.242 M123.857 168.852 C 123.773 169.071,123.509 169.731,123.269 170.320 C 123.030 170.908,122.860 171.415,122.891 171.447 C 122.923 171.478,123.224 170.854,123.560 170.060 C 123.896 169.266,124.135 168.579,124.090 168.535 C 124.046 168.490,123.941 168.633,123.857 168.852 M122.563 171.864 C 122.488 171.985,122.412 172.158,122.396 172.250 C 122.379 172.342,122.316 172.567,122.256 172.750 C 122.196 172.933,122.307 172.795,122.502 172.443 C 122.828 171.856,122.880 171.356,122.563 171.864 M121.524 174.357 C 121.234 175.014,121.023 175.579,121.056 175.611 C 121.088 175.644,121.353 175.133,121.643 174.476 C 121.933 173.819,122.144 173.255,122.111 173.222 C 122.078 173.189,121.814 173.700,121.524 174.357 M120.260 177.252 C 119.900 178.113,119.947 178.211,120.353 177.443 C 120.539 177.090,120.652 176.763,120.605 176.716 C 120.558 176.669,120.403 176.910,120.260 177.252 M119.027 180.090 C 118.748 180.703,118.801 180.834,119.103 180.277 C 119.244 180.017,119.328 179.773,119.290 179.735 C 119.252 179.696,119.134 179.857,119.027 180.090 M118.386 181.917 C 118.418 182.222,118.546 182.251,119.919 182.259 L 121.417 182.269 119.969 182.212 C 118.778 182.165,118.507 182.104,118.437 181.869 C 118.374 181.657,118.361 181.669,118.386 181.917 M123.892 183.545 C 123.906 183.765,124.006 183.944,124.116 183.944 C 124.265 183.944,124.269 183.856,124.135 183.597 C 123.878 183.103,123.864 183.100,123.892 183.545 M124.232 184.717 C 124.214 185.213,124.225 185.224,124.384 184.870 C 124.488 184.639,124.496 184.429,124.403 184.337 C 124.310 184.245,124.243 184.395,124.232 184.717 M122.031 190.425 C 121.529 191.458,121.585 191.603,122.103 190.609 C 122.334 190.164,122.494 189.772,122.460 189.737 C 122.425 189.702,122.232 190.012,122.031 190.425 M121.111 192.528 C 120.867 193.093,120.694 193.583,120.727 193.616 C 120.759 193.648,120.987 193.213,121.231 192.648 C 121.476 192.083,121.649 191.594,121.616 191.560 C 121.582 191.527,121.355 191.962,121.111 192.528 M119.014 197.308 C 118.741 197.817,118.798 197.958,119.100 197.526 C 119.247 197.317,119.328 197.106,119.281 197.058 C 119.233 197.011,119.113 197.123,119.014 197.308 M117.278 201.361 C 117.034 201.927,116.861 202.416,116.893 202.449 C 116.926 202.482,117.153 202.046,117.398 201.481 C 117.643 200.917,117.816 200.427,117.783 200.394 C 117.749 200.360,117.522 200.795,117.278 201.361 M116.333 203.417 C 116.129 203.839,116.002 204.224,116.050 204.273 C 116.099 204.321,116.296 204.006,116.488 203.571 C 116.942 202.545,116.816 202.419,116.333 203.417 M115.338 205.738 C 115.090 206.389,115.139 206.492,115.436 205.944 C 115.577 205.683,115.651 205.429,115.601 205.379 C 115.551 205.328,115.432 205.490,115.338 205.738 M110.705 211.167 C 110.705 211.487,110.740 211.619,110.782 211.458 C 110.823 211.298,110.823 211.035,110.782 210.875 C 110.740 210.715,110.705 210.846,110.705 211.167 " stroke="none" fill="#f9cd10" fill-rule="evenodd"></path><path id="path1" d="M280.292 159.260 C 280.223 159.331,280.167 162.376,280.167 166.028 C 280.167 172.223,280.086 173.395,279.737 172.292 C 279.430 171.322,277.341 169.687,275.500 168.975 C 273.772 168.308,268.163 168.997,267.167 170.000 C 267.121 170.046,266.873 170.192,266.616 170.325 C 266.115 170.583,264.167 172.572,264.167 172.825 C 264.167 172.908,264.070 173.075,263.952 173.196 C 261.956 175.239,261.217 183.316,262.704 186.833 C 263.132 187.846,263.426 188.421,263.542 188.472 C 263.610 188.503,263.667 188.601,263.667 188.690 C 263.667 189.491,266.545 192.457,268.151 193.310 C 272.953 195.860,279.861 194.662,282.435 190.833 C 284.550 187.687,284.833 185.470,284.833 172.067 C 284.833 160.658,284.813 160.506,283.146 159.656 C 282.459 159.306,280.509 159.035,280.292 159.260 M142.750 160.851 C 140.127 161.229,138.962 161.464,137.250 161.962 L 136.750 162.107 136.750 177.345 C 136.750 192.049,136.761 192.600,137.067 193.051 C 137.598 193.834,138.470 194.167,139.993 194.167 L 141.333 194.167 141.333 187.429 L 141.333 180.692 142.286 181.027 C 146.126 182.376,150.904 182.045,154.040 180.211 C 155.112 179.585,157.158 177.736,157.164 177.389 C 157.165 177.282,157.226 177.169,157.299 177.139 C 158.367 176.689,159.501 172.084,159.156 169.595 C 158.309 163.484,154.200 160.626,146.347 160.687 C 144.919 160.698,143.300 160.772,142.750 160.851 M200.792 164.119 C 200.540 164.158,200.333 164.254,200.333 164.333 C 200.333 164.413,200.177 164.527,199.987 164.588 C 199.562 164.722,198.316 166.643,197.989 167.667 C 197.293 169.849,197.738 189.804,198.499 190.566 C 198.591 190.658,198.667 190.868,198.667 191.033 C 198.667 191.198,198.742 191.333,198.833 191.333 C 198.925 191.333,199.000 191.449,199.000 191.591 C 199.000 191.979,200.480 193.367,201.333 193.780 C 202.710 194.446,203.357 194.565,205.583 194.563 C 209.273 194.559,210.500 193.558,210.500 190.553 C 210.500 189.540,210.537 189.558,209.373 190.000 C 208.086 190.489,205.299 190.476,204.234 189.975 C 202.349 189.089,202.171 188.227,202.169 179.958 L 202.167 173.333 205.142 173.333 C 209.810 173.333,210.667 172.871,210.667 170.355 L 210.667 169.167 206.417 169.167 L 202.167 169.167 202.167 166.583 L 202.167 164.000 201.708 164.025 C 201.456 164.039,201.044 164.081,200.792 164.119 M151.016 165.576 C 153.474 166.553,154.500 168.290,154.500 171.476 C 154.500 173.572,153.844 175.269,152.705 176.118 C 152.363 176.373,152.046 176.626,152.000 176.680 C 151.954 176.735,151.390 176.979,150.746 177.223 C 148.496 178.076,144.782 177.820,141.792 176.605 L 141.333 176.419 141.333 170.982 L 141.333 165.546 142.292 165.356 C 144.894 164.840,149.455 164.955,151.016 165.576 M121.542 166.956 L 120.667 167.017 120.667 169.092 C 120.667 171.873,120.727 171.852,122.017 168.622 C 122.715 166.873,122.731 166.817,122.542 166.864 C 122.473 166.881,122.023 166.923,121.542 166.956 M106.694 167.129 C 106.725 167.200,107.237 168.474,107.833 169.961 L 108.917 172.664 109.958 172.665 L 111.000 172.667 111.000 172.029 C 111.000 171.303,111.531 170.667,112.136 170.667 C 112.488 170.667,112.500 170.607,112.500 168.833 L 112.500 167.000 109.569 167.000 C 107.958 167.000,106.664 167.058,106.694 167.129 M113.000 168.980 C 113.000 170.435,113.059 171.008,113.224 171.145 C 113.348 171.248,113.584 171.632,113.750 171.999 L 114.051 172.667 116.197 172.667 L 118.344 172.667 118.849 172.091 C 119.127 171.775,119.499 171.470,119.677 171.413 C 119.975 171.319,120.000 171.142,120.000 169.155 L 120.000 167.000 116.500 167.000 L 113.000 167.000 113.000 168.980 M174.167 168.773 C 169.699 169.425,167.506 171.285,167.365 174.542 C 167.281 176.474,167.358 176.526,168.531 175.333 C 168.983 174.875,169.417 174.500,169.497 174.500 C 169.577 174.500,169.742 174.403,169.863 174.285 C 170.896 173.275,174.677 172.499,176.891 172.841 C 180.073 173.333,181.333 174.701,181.333 177.667 L 181.333 178.784 177.875 178.885 C 171.062 179.083,168.015 180.698,166.683 184.817 C 166.444 185.557,166.447 188.519,166.688 189.117 C 168.223 192.930,171.098 194.563,176.250 194.549 C 179.920 194.539,181.745 193.944,183.536 192.173 C 185.526 190.206,185.833 188.845,185.833 182.000 C 185.833 174.548,185.485 173.157,183.013 170.748 C 181.487 169.260,177.272 168.319,174.167 168.773 M303.833 168.767 C 301.041 169.105,298.489 170.549,297.542 172.328 C 297.164 173.037,296.963 176.167,297.296 176.167 C 297.367 176.167,297.849 175.765,298.368 175.275 C 300.377 173.375,303.687 172.411,306.708 172.846 C 309.735 173.282,311.000 174.651,311.000 177.490 L 311.000 178.786 307.625 178.875 C 300.745 179.058,297.527 180.821,296.409 185.022 C 294.969 190.431,299.096 194.573,305.917 194.565 C 310.917 194.558,314.017 192.827,314.987 189.500 C 315.107 189.088,315.272 188.533,315.353 188.267 C 315.603 187.447,315.525 176.233,315.262 175.167 C 314.078 170.366,309.910 168.032,303.833 168.767 M225.943 169.581 C 223.156 170.547,221.517 172.670,220.732 176.333 C 220.319 178.262,220.400 192.151,220.830 192.993 C 221.285 193.886,221.930 194.167,223.526 194.167 L 224.833 194.167 224.833 186.590 C 224.833 175.855,225.093 174.565,227.457 173.577 C 228.797 173.017,231.715 173.420,232.637 174.292 C 233.712 175.309,233.886 171.999,232.833 170.564 C 231.841 169.212,228.418 168.724,225.943 169.581 M243.500 179.139 C 243.500 188.824,243.510 189.142,243.850 190.179 C 244.751 192.923,246.538 194.098,250.083 194.277 C 252.788 194.414,253.468 193.834,253.491 191.375 L 253.500 190.333 252.208 190.331 C 250.087 190.327,249.083 189.900,248.380 188.705 L 247.917 187.917 247.833 179.500 L 247.750 171.083 247.333 170.466 C 246.710 169.543,245.919 169.167,244.602 169.167 L 243.500 169.167 243.500 179.139 M276.070 173.418 C 279.617 175.040,281.283 181.322,279.569 186.608 C 278.084 191.187,271.506 191.864,268.382 187.760 C 265.091 183.436,266.056 175.343,270.083 173.493 C 271.829 172.690,274.409 172.658,276.070 173.418 M110.234 175.875 C 110.809 177.273,111.330 178.623,111.393 178.875 C 111.505 179.329,111.746 179.442,112.100 179.206 C 112.210 179.133,112.323 178.188,112.381 176.858 L 112.477 174.632 111.795 173.983 C 111.163 173.382,111.041 173.333,110.150 173.333 L 109.188 173.333 110.234 175.875 M113.864 173.825 C 113.744 174.096,113.500 174.364,113.323 174.420 C 113.025 174.515,113.000 174.693,113.000 176.751 L 113.000 178.979 113.539 179.031 C 113.936 179.069,114.168 179.226,114.414 179.619 C 114.744 180.144,114.774 180.154,116.022 180.160 L 117.293 180.167 118.416 177.458 C 119.033 175.969,119.572 174.665,119.613 174.562 C 119.654 174.458,119.463 174.295,119.190 174.200 C 118.916 174.104,118.609 173.870,118.507 173.680 C 118.334 173.357,118.178 173.333,116.201 173.333 L 114.081 173.333 113.864 173.825 M114.109 181.266 C 113.940 181.498,113.614 181.774,113.385 181.878 C 112.820 182.135,112.916 182.643,114.063 185.500 L 114.967 187.750 116.820 187.797 L 118.673 187.844 119.336 187.311 L 120.000 186.778 120.000 185.472 L 120.000 184.167 117.833 184.167 C 116.642 184.167,115.667 184.143,115.667 184.113 C 115.667 184.084,115.967 183.358,116.333 182.500 C 116.700 181.642,117.000 180.916,117.000 180.887 C 117.000 180.553,114.378 180.897,114.109 181.266 M181.331 184.792 C 181.326 189.140,180.199 190.402,176.333 190.386 C 172.986 190.373,171.000 188.992,171.000 186.679 C 171.000 183.856,173.520 182.580,179.208 182.522 L 181.333 182.500 181.331 184.792 M311.128 184.958 C 310.973 189.331,310.002 190.377,306.083 190.396 C 302.252 190.415,300.035 188.398,300.860 185.645 C 301.499 183.510,303.961 182.563,308.983 182.519 L 311.215 182.500 311.128 184.958 M120.667 185.398 L 120.667 186.629 121.163 186.702 C 121.609 186.767,122.667 185.050,122.667 184.262 C 122.667 184.209,122.217 184.167,121.667 184.167 L 120.667 184.167 120.667 185.398 M115.409 188.792 C 115.470 188.952,116.088 190.491,116.782 192.211 L 118.044 195.338 118.452 194.461 C 120.084 190.957,120.291 189.988,119.458 189.743 C 119.092 189.635,118.836 189.409,118.667 189.045 L 118.417 188.507 116.857 188.504 C 115.440 188.500,115.308 188.527,115.409 188.792 M265.833 206.167 L 265.833 207.833 265.083 207.833 C 264.394 207.833,264.333 207.867,264.333 208.250 C 264.333 208.631,264.396 208.667,265.060 208.667 L 265.788 208.667 265.870 210.664 C 265.962 212.896,266.279 213.667,267.382 214.339 C 269.175 215.433,274.031 214.035,272.591 212.840 C 272.395 212.677,272.218 212.744,271.657 213.194 C 270.991 213.730,270.912 213.750,269.500 213.750 C 267.288 213.750,266.833 213.164,266.833 210.313 L 266.833 208.667 269.500 208.667 L 272.167 208.667 272.167 208.250 L 272.167 207.833 269.500 207.833 L 266.833 207.833 266.833 206.167 L 266.833 204.500 266.333 204.500 L 265.833 204.500 265.833 206.167 M136.833 209.750 L 136.833 214.667 142.000 214.667 L 147.167 214.667 147.167 214.250 L 147.167 213.833 142.417 213.833 L 137.667 213.833 137.667 212.083 L 137.667 210.333 141.833 210.333 L 146.000 210.333 146.000 209.833 L 146.000 209.333 141.833 209.333 L 137.667 209.333 137.667 207.583 L 137.667 205.833 142.417 205.833 L 147.167 205.833 147.167 205.333 L 147.167 204.833 142.000 204.833 L 136.833 204.833 136.833 209.750 M226.500 205.067 C 224.515 205.581,224.000 206.108,224.000 207.624 C 224.000 209.615,224.750 209.968,229.417 210.171 C 234.520 210.394,235.333 210.644,235.333 211.989 C 235.333 213.520,234.639 213.752,230.083 213.743 C 225.629 213.735,224.833 213.498,224.833 212.178 C 224.833 211.921,224.727 211.833,224.417 211.833 C 223.802 211.833,223.806 213.094,224.422 213.710 C 225.937 215.225,234.958 215.094,235.860 213.544 C 236.503 212.438,236.346 211.038,235.481 210.173 C 234.844 209.536,233.635 209.334,230.431 209.329 C 228.956 209.327,227.412 209.251,227.000 209.161 C 226.588 209.071,226.083 208.960,225.880 208.913 C 224.927 208.697,224.549 207.573,225.166 206.788 C 226.488 205.109,235.333 205.573,235.333 207.321 C 235.333 207.594,235.439 207.667,235.833 207.667 C 236.875 207.667,236.112 205.984,234.833 205.461 C 233.429 204.887,228.157 204.638,226.500 205.067 M151.000 211.167 L 151.000 214.667 151.500 214.667 L 152.000 214.667 152.000 212.748 C 152.000 210.062,152.424 209.460,154.750 208.845 C 157.964 207.994,159.667 209.501,159.667 213.197 L 159.667 214.667 160.191 214.667 L 160.716 214.667 160.624 212.792 C 160.482 209.919,159.677 208.454,157.985 207.994 C 156.393 207.560,152.868 208.103,152.405 208.853 C 152.191 209.198,152.000 208.952,152.000 208.333 C 152.000 207.704,151.972 207.667,151.500 207.667 L 151.000 207.667 151.000 211.167 M167.250 207.944 C 166.975 207.989,166.679 208.095,166.592 208.179 C 166.505 208.264,166.309 208.333,166.157 208.333 C 165.591 208.333,164.387 209.612,164.180 210.433 C 163.891 211.582,164.220 212.887,164.994 213.659 C 166.474 215.135,171.961 215.072,173.471 213.562 C 174.318 212.715,173.668 212.016,172.796 212.835 C 172.011 213.574,171.375 213.728,169.083 213.737 C 166.527 213.747,165.785 213.488,165.193 212.383 C 164.810 211.667,164.812 211.667,169.583 211.667 C 174.785 211.667,174.387 211.802,173.911 210.199 C 173.381 208.414,170.445 207.420,167.250 207.944 M177.333 211.250 L 177.333 214.667 177.750 214.667 L 178.167 214.667 178.167 212.678 C 178.167 211.583,178.245 210.483,178.340 210.233 C 178.921 208.705,181.542 208.218,183.747 209.227 C 185.358 209.965,185.819 209.097,184.223 208.330 C 182.899 207.693,178.500 207.844,178.500 208.527 C 178.500 208.604,178.425 208.667,178.333 208.667 C 178.242 208.667,178.167 208.479,178.167 208.250 C 178.167 207.917,178.083 207.833,177.750 207.833 L 177.333 207.833 177.333 211.250 M191.417 207.980 C 188.278 208.838,187.193 211.879,189.362 213.736 C 190.657 214.845,195.667 215.096,196.958 214.117 C 197.319 213.844,197.205 215.136,196.806 215.846 C 195.980 217.316,192.899 217.623,189.672 216.558 C 188.943 216.318,188.500 216.486,188.500 217.004 C 188.500 217.632,192.749 218.303,194.782 217.996 C 197.770 217.544,198.167 216.773,198.167 211.410 L 198.167 207.833 197.762 207.833 C 197.492 207.833,197.339 207.940,197.303 208.153 C 197.253 208.453,197.210 208.458,196.583 208.232 C 195.812 207.955,192.162 207.777,191.417 207.980 M279.250 207.944 C 278.975 207.989,278.679 208.095,278.592 208.179 C 278.505 208.264,278.309 208.333,278.157 208.333 C 276.408 208.333,275.487 211.727,276.770 213.446 C 278.001 215.096,283.860 215.174,285.471 213.562 C 286.318 212.715,285.668 212.016,284.796 212.835 C 284.011 213.574,283.375 213.728,281.083 213.737 C 278.527 213.747,277.785 213.488,277.193 212.383 C 276.810 211.667,276.812 211.667,281.583 211.667 C 286.785 211.667,286.387 211.802,285.911 210.199 C 285.381 208.414,282.445 207.420,279.250 207.944 M289.500 211.250 L 289.500 214.667 290.000 214.667 L 290.500 214.667 290.500 212.346 L 290.500 210.026 290.981 209.545 C 292.284 208.241,295.187 208.457,295.879 209.909 C 296.056 210.280,296.189 211.197,296.266 212.571 C 296.381 214.647,296.386 214.667,296.787 214.667 L 297.191 214.667 297.158 212.292 C 297.115 209.216,297.310 208.900,299.376 208.701 C 301.789 208.468,302.509 209.290,302.628 212.419 C 302.713 214.645,302.718 214.667,303.107 214.667 C 303.983 214.667,303.594 209.664,302.641 208.666 C 301.744 207.728,298.493 207.555,297.214 208.378 L 296.511 208.831 295.912 208.424 C 294.900 207.738,292.006 207.626,291.130 208.240 C 290.639 208.584,290.500 208.568,290.500 208.167 C 290.500 207.907,290.389 207.833,290.000 207.833 L 289.500 207.833 289.500 211.250 M201.617 208.458 C 201.778 208.710,201.952 208.954,202.004 209.000 C 202.056 209.046,202.396 209.533,202.760 210.083 C 203.124 210.633,203.927 211.807,204.544 212.691 C 205.162 213.574,205.667 214.346,205.667 214.406 C 205.667 214.526,205.030 215.452,204.708 215.799 C 204.594 215.923,204.500 216.079,204.500 216.147 C 204.500 216.215,204.358 216.423,204.184 216.609 C 203.884 216.932,203.333 217.880,203.333 218.075 C 203.333 218.125,203.556 218.167,203.829 218.167 C 204.268 218.167,204.442 217.992,205.360 216.625 C 205.930 215.777,206.489 214.989,206.604 214.874 C 206.718 214.759,206.859 214.515,206.917 214.332 C 206.975 214.150,207.075 214.000,207.140 214.000 C 207.205 214.000,207.399 213.737,207.572 213.417 C 207.744 213.096,207.944 212.833,208.015 212.833 C 208.086 212.833,208.192 212.684,208.250 212.501 C 208.308 212.318,208.446 212.074,208.558 211.959 C 208.669 211.844,209.342 210.906,210.052 209.875 L 211.344 208.000 210.704 208.000 L 210.065 208.000 208.266 210.667 C 206.681 213.015,206.000 213.762,206.000 213.151 C 206.000 213.051,205.869 212.797,205.708 212.587 C 205.548 212.377,205.304 212.038,205.167 211.834 C 205.029 211.629,204.710 211.198,204.458 210.875 C 204.206 210.552,204.000 210.228,204.000 210.156 C 204.000 210.083,203.903 209.925,203.784 209.804 C 203.665 209.682,203.324 209.227,203.026 208.792 C 202.554 208.103,202.409 208.000,201.905 208.000 L 201.326 208.000 201.617 208.458 M239.784 208.458 C 239.944 208.710,240.118 208.954,240.170 209.000 C 240.222 209.046,240.563 209.533,240.927 210.083 C 241.291 210.633,242.094 211.807,242.711 212.691 C 243.328 213.574,243.833 214.346,243.833 214.406 C 243.833 214.526,243.197 215.452,242.875 215.799 C 242.760 215.923,242.667 216.079,242.667 216.147 C 242.667 216.215,242.525 216.423,242.351 216.609 C 242.051 216.932,241.500 217.880,241.500 218.075 C 241.500 218.125,241.723 218.167,241.996 218.167 C 242.435 218.167,242.609 217.992,243.527 216.625 C 244.096 215.777,244.656 214.989,244.770 214.874 C 244.885 214.759,245.026 214.515,245.084 214.332 C 245.142 214.150,245.242 214.000,245.307 214.000 C 245.371 214.000,245.566 213.737,245.738 213.417 C 245.911 213.096,246.111 212.833,246.182 212.833 C 246.253 212.833,246.358 212.684,246.416 212.501 C 246.474 212.318,246.613 212.074,246.725 211.959 C 246.837 211.844,247.505 210.906,248.211 209.875 L 249.494 208.000 248.863 208.000 C 248.234 208.000,248.226 208.008,246.432 210.667 C 244.847 213.015,244.167 213.762,244.167 213.151 C 244.167 213.051,244.035 212.797,243.875 212.587 C 243.715 212.377,243.471 212.038,243.333 211.834 C 243.196 211.629,242.877 211.198,242.625 210.875 C 242.373 210.552,242.167 210.228,242.167 210.156 C 242.167 210.083,242.069 209.925,241.950 209.804 C 241.831 209.682,241.490 209.227,241.192 208.792 C 240.721 208.103,240.575 208.000,240.071 208.000 L 239.492 208.000 239.784 208.458 M253.472 208.338 C 252.388 208.910,252.209 210.485,253.151 211.156 C 253.686 211.537,255.712 211.833,257.779 211.833 C 259.809 211.833,260.761 212.660,259.725 213.521 C 258.864 214.236,253.879 213.852,253.500 213.042 C 253.114 212.217,252.419 212.263,252.576 213.104 C 252.840 214.511,253.261 214.667,256.796 214.667 C 260.455 214.667,261.096 214.364,260.960 212.700 C 260.836 211.180,260.117 210.840,257.019 210.836 C 253.910 210.832,252.882 210.376,253.738 209.381 L 254.138 208.917 256.527 208.917 C 259.114 208.917,260.000 209.113,260.000 209.687 C 260.000 209.924,260.122 210.000,260.500 210.000 C 261.598 210.000,261.002 208.673,259.701 208.220 C 258.648 207.853,254.231 207.937,253.472 208.338 M308.226 208.251 C 307.516 208.570,306.941 209.519,307.078 210.144 C 307.344 211.353,308.130 211.640,311.568 211.783 C 314.323 211.897,314.740 212.059,314.635 212.968 C 314.560 213.621,313.806 213.817,311.417 213.804 C 308.799 213.791,308.478 213.716,308.167 213.045 C 307.665 211.965,306.768 212.455,307.228 213.557 C 307.628 214.513,308.220 214.667,311.496 214.667 C 315.041 214.667,315.387 214.513,315.465 212.905 C 315.547 211.227,314.793 210.833,311.495 210.833 C 308.785 210.833,307.898 210.521,308.124 209.646 C 308.419 208.511,314.667 208.628,314.667 209.769 C 314.667 209.906,314.841 210.000,315.093 210.000 C 315.855 210.000,315.610 208.882,314.750 208.432 C 313.890 207.982,309.119 207.850,308.226 208.251 M171.250 209.004 C 171.878 209.192,173.167 210.315,173.167 210.674 C 173.167 210.771,171.575 210.833,169.083 210.833 C 166.837 210.833,165.000 210.771,165.000 210.694 C 165.000 209.276,168.762 208.259,171.250 209.004 M195.167 208.906 C 195.763 209.038,196.475 209.212,196.750 209.293 L 197.250 209.440 197.298 210.991 C 197.372 213.366,196.884 213.710,193.401 213.734 C 190.324 213.756,189.333 213.174,189.333 211.343 C 189.333 209.266,191.916 208.187,195.167 208.906 M283.250 209.004 C 283.878 209.192,285.167 210.315,285.167 210.674 C 285.167 210.771,283.575 210.833,281.083 210.833 C 278.837 210.833,277.000 210.789,277.000 210.734 C 277.000 209.279,280.725 208.248,283.250 209.004 " stroke="none" fill="#16457b" fill-rule="evenodd"></path><path id="path2" d="M104.833 169.319 C 104.833 170.767,104.769 171.660,104.661 171.696 C 104.495 171.752,105.224 178.446,105.417 178.639 C 105.462 178.685,105.500 177.764,105.500 176.592 L 105.500 174.462 106.208 173.821 L 106.917 173.180 109.022 173.174 L 111.127 173.167 111.814 173.853 L 112.500 174.539 112.500 176.839 L 112.500 179.139 111.933 179.490 C 111.621 179.682,111.324 179.951,111.272 180.087 C 111.195 180.288,110.758 180.333,108.916 180.333 L 106.655 180.333 106.309 179.746 C 105.816 178.911,105.266 178.629,105.393 179.277 C 105.444 179.537,105.534 180.245,105.593 180.851 C 105.757 182.538,106.326 182.849,106.597 181.400 L 106.704 180.833 108.852 180.833 C 110.862 180.833,111.000 180.854,111.000 181.155 C 111.000 181.623,111.452 182.000,112.012 182.000 L 112.500 182.000 112.500 184.167 C 112.500 186.201,112.480 186.333,112.176 186.333 C 111.811 186.333,111.333 186.922,111.333 187.370 C 111.333 187.556,111.458 187.667,111.667 187.667 C 111.959 187.667,112.000 187.778,112.000 188.563 C 112.000 189.156,112.084 189.529,112.250 189.667 C 112.729 190.064,112.604 193.960,112.105 194.187 C 111.788 194.332,111.689 194.538,111.606 195.225 C 111.409 196.862,111.440 197.000,112.000 197.000 L 112.500 197.000 112.500 199.151 C 112.500 201.185,112.483 201.298,112.182 201.219 C 111.008 200.912,110.745 203.284,111.833 204.373 L 112.500 205.039 112.514 206.895 C 112.526 208.605,112.545 208.711,112.756 208.250 C 112.888 207.962,112.988 207.174,112.992 206.394 C 112.999 205.149,113.033 205.017,113.402 204.775 C 113.623 204.630,113.854 204.284,113.915 204.006 C 114.002 203.612,114.116 203.500,114.430 203.500 C 114.677 203.500,114.833 203.403,114.833 203.250 C 114.833 203.083,114.667 203.000,114.333 203.000 C 114.012 203.000,113.833 202.915,113.833 202.763 C 113.833 202.632,113.646 202.303,113.417 202.030 C 113.016 201.554,113.000 201.446,113.000 199.221 L 113.000 196.908 113.517 196.454 C 113.969 196.058,114.175 196.000,115.142 195.999 C 116.601 195.997,118.000 195.823,118.000 195.643 C 118.000 195.565,117.175 195.500,116.167 195.500 L 114.333 195.500 114.333 195.083 C 114.333 194.583,113.795 194.000,113.333 194.000 C 113.019 194.000,113.000 193.889,113.000 192.000 C 113.000 190.333,113.042 190.000,113.250 190.000 C 113.668 190.000,114.167 189.365,114.167 188.833 L 114.167 188.333 116.417 188.333 C 118.666 188.333,118.667 188.333,118.667 188.724 C 118.667 189.197,119.146 189.667,119.630 189.667 C 119.824 189.667,120.045 189.776,120.119 189.909 C 120.214 190.079,120.449 189.677,120.900 188.571 C 121.572 186.923,121.576 186.795,120.958 186.750 C 120.609 186.725,120.580 186.636,120.535 185.445 C 120.471 183.775,120.168 183.786,120.164 185.458 L 120.161 186.750 119.508 187.292 L 118.856 187.833 116.428 187.833 C 114.979 187.833,114.000 187.768,114.000 187.672 C 114.000 187.584,113.775 187.255,113.500 186.942 L 113.000 186.373 113.000 184.103 C 113.000 182.756,113.065 181.833,113.161 181.833 C 113.249 181.833,113.574 181.612,113.883 181.341 C 114.387 180.898,114.576 180.843,115.750 180.799 C 117.605 180.729,117.705 180.333,115.868 180.333 L 114.542 180.333 114.443 179.842 C 114.364 179.444,114.217 179.312,113.673 179.149 L 113.000 178.947 113.000 176.729 C 113.000 174.737,113.031 174.495,113.310 174.346 C 113.481 174.254,113.715 173.952,113.831 173.673 L 114.040 173.167 116.156 173.167 L 118.271 173.167 118.640 173.667 C 119.234 174.470,119.613 174.331,120.168 173.107 C 120.766 171.788,120.932 171.167,120.685 171.167 C 120.559 171.167,120.500 170.497,120.500 169.083 C 120.500 167.806,120.436 167.000,120.333 167.000 C 120.231 167.000,120.167 167.823,120.167 169.136 L 120.167 171.272 119.575 171.554 C 119.249 171.709,118.856 172.060,118.700 172.334 L 118.417 172.831 116.216 172.832 L 114.016 172.833 113.693 172.105 C 113.516 171.704,113.288 171.325,113.186 171.262 C 113.065 171.187,113.000 170.417,113.000 169.073 C 113.000 167.341,112.959 167.000,112.750 167.000 C 112.542 167.000,112.500 167.322,112.500 168.896 L 112.500 170.792 112.068 170.792 C 111.456 170.792,111.151 171.173,111.088 172.018 C 111.036 172.716,111.010 172.750,110.517 172.741 C 107.176 172.681,107.000 172.665,107.000 172.417 C 107.000 172.035,106.381 171.500,105.940 171.500 C 105.495 171.500,105.333 170.630,105.333 168.226 C 105.333 167.247,105.283 167.000,105.083 167.000 C 104.873 167.000,104.833 167.369,104.833 169.319 M106.333 187.069 C 106.333 187.215,106.452 187.333,106.597 187.333 C 106.742 187.333,106.831 187.244,106.795 187.135 C 106.692 186.826,106.333 186.775,106.333 187.069 M111.662 209.617 C 110.984 210.085,110.833 210.380,110.876 211.154 C 110.924 212.014,111.223 212.216,111.462 211.549 C 111.554 211.293,111.787 210.690,111.979 210.208 C 112.355 209.268,112.304 209.175,111.662 209.617 " stroke="none" fill="#f3f5f6" fill-rule="evenodd"></path><path id="path3" d="M256.500 158.417 C 256.500 160.285,256.635 160.542,257.124 159.606 C 257.285 159.297,257.613 158.678,257.853 158.231 C 258.678 156.694,258.672 156.667,257.511 156.667 L 256.500 156.667 256.500 158.417 M111.875 160.290 C 111.394 160.323,111.000 160.426,111.000 160.519 C 111.000 160.611,111.056 160.651,111.125 160.609 C 111.194 160.566,111.212 161.608,111.167 162.925 C 111.058 166.054,111.188 165.961,106.263 166.415 C 102.245 166.786,102.404 166.135,103.766 176.667 C 104.069 179.006,104.437 182.046,104.675 184.167 C 104.990 186.983,105.270 187.497,106.667 187.819 C 107.079 187.915,107.940 188.112,108.580 188.258 C 110.423 188.678,110.377 188.358,109.911 197.417 C 109.774 200.075,109.590 203.637,109.503 205.333 C 109.163 211.940,109.335 213.500,110.406 213.500 C 110.866 213.500,111.149 214.096,111.199 215.169 C 111.259 216.441,111.272 216.447,113.708 216.480 L 115.167 216.500 115.167 211.323 C 115.167 206.154,115.167 206.144,115.583 205.234 C 115.813 204.733,116.000 204.262,116.000 204.187 C 116.000 204.111,116.173 203.720,116.384 203.316 C 116.853 202.422,118.027 199.684,118.071 199.382 C 118.089 199.262,118.193 199.074,118.302 198.965 C 118.411 198.856,118.500 198.703,118.500 198.626 C 118.500 198.548,118.763 197.924,119.083 197.239 C 119.404 196.553,119.667 195.959,119.667 195.918 C 119.667 195.877,119.846 195.447,120.065 194.963 C 120.284 194.479,120.801 193.296,121.215 192.333 C 121.628 191.371,122.160 190.152,122.398 189.625 C 122.635 189.098,122.783 188.667,122.727 188.667 C 122.672 188.667,122.726 188.546,122.849 188.398 C 123.678 187.399,124.625 183.839,124.029 183.962 C 123.908 183.988,123.852 183.938,123.905 183.851 C 124.429 183.004,122.827 182.331,120.286 182.333 C 117.953 182.334,117.972 182.411,119.482 179.121 C 119.767 178.500,120.000 177.958,120.000 177.917 C 120.000 177.877,120.178 177.447,120.396 176.963 C 121.261 175.045,122.375 172.415,122.402 172.230 C 122.418 172.122,122.510 171.932,122.605 171.808 C 122.701 171.685,123.032 170.946,123.340 170.167 C 123.648 169.387,123.989 168.578,124.097 168.367 C 124.205 168.156,124.273 167.669,124.248 167.284 C 124.114 165.229,123.547 165.000,118.589 165.000 L 114.833 165.000 114.833 162.583 L 114.833 160.167 113.792 160.197 C 113.219 160.214,112.356 160.256,111.875 160.290 M243.672 163.625 C 243.668 164.651,243.604 165.167,243.480 165.167 C 243.350 165.167,243.355 165.242,243.498 165.415 C 243.611 165.551,243.663 165.770,243.613 165.901 C 243.524 166.132,243.813 166.333,244.235 166.333 C 244.542 166.333,244.561 164.750,244.267 163.622 C 243.825 161.926,243.677 161.927,243.672 163.625 M122.667 166.926 C 122.667 166.976,121.683 169.433,120.481 172.384 C 119.278 175.335,117.974 178.537,117.582 179.500 C 117.190 180.463,116.598 181.885,116.268 182.662 C 115.937 183.438,115.667 184.094,115.667 184.120 C 115.667 184.146,117.242 184.167,119.167 184.167 C 121.092 184.167,122.667 184.210,122.667 184.264 C 122.667 184.317,122.038 185.873,121.270 187.722 C 120.502 189.571,118.844 193.596,117.586 196.667 C 116.328 199.737,115.049 202.813,114.744 203.500 C 114.439 204.188,113.592 206.250,112.863 208.083 C 112.133 209.917,111.337 211.829,111.093 212.333 L 110.649 213.250 110.743 211.250 C 110.794 210.150,110.906 208.125,110.992 206.750 C 111.077 205.375,111.229 202.563,111.329 200.500 C 111.430 198.438,111.582 195.588,111.668 194.167 C 111.754 192.746,111.870 190.713,111.927 189.649 L 112.030 187.714 111.390 187.616 C 111.038 187.562,109.768 187.467,108.569 187.404 L 106.388 187.289 105.430 179.436 C 104.903 175.117,104.366 170.736,104.236 169.700 C 104.106 168.664,104.000 167.633,104.000 167.410 L 104.000 167.003 113.208 166.958 C 118.273 166.934,122.473 166.896,122.542 166.874 C 122.610 166.851,122.667 166.875,122.667 166.926 " stroke="none" fill="#d7760f" fill-rule="evenodd"></path><path id="path4" d="M104.003 167.458 C 104.005 167.710,104.117 168.742,104.252 169.750 C 104.387 170.758,104.498 171.602,104.499 171.625 C 104.499 171.648,104.575 171.667,104.667 171.667 C 104.770 171.667,104.833 170.778,104.833 169.333 L 104.833 167.000 104.417 167.000 C 104.072 167.000,104.001 167.080,104.003 167.458 M105.333 168.226 C 105.333 170.630,105.495 171.500,105.940 171.500 C 106.381 171.500,107.000 172.035,107.000 172.417 C 107.000 172.609,107.213 172.667,107.917 172.667 C 108.421 172.667,108.833 172.606,108.833 172.532 C 108.833 172.430,107.331 168.646,106.720 167.208 C 106.670 167.093,106.343 167.000,105.982 167.000 L 105.333 167.000 105.333 168.226 M120.065 169.167 C 120.065 170.404,120.092 170.910,120.124 170.292 C 120.156 169.673,120.156 168.660,120.124 168.042 C 120.092 167.423,120.065 167.929,120.065 169.167 M120.565 169.083 C 120.565 170.275,120.592 170.741,120.624 170.118 C 120.656 169.496,120.656 168.521,120.623 167.951 C 120.591 167.382,120.564 167.892,120.565 169.083 M113.876 172.500 C 113.932 172.707,114.348 172.751,116.264 172.758 L 118.583 172.766 116.340 172.711 C 114.821 172.674,114.050 172.591,113.952 172.453 C 113.849 172.307,113.827 172.320,113.876 172.500 M110.500 172.667 L 109.917 172.789 110.448 172.811 C 110.741 172.823,111.027 172.758,111.083 172.667 C 111.140 172.575,111.163 172.510,111.135 172.522 C 111.107 172.534,110.821 172.599,110.500 172.667 M106.217 173.814 L 105.517 174.447 105.490 176.676 C 105.471 178.241,105.521 178.924,105.657 178.969 C 105.763 179.004,106.035 179.326,106.261 179.683 L 106.671 180.333 108.924 180.333 C 110.759 180.333,111.195 180.288,111.272 180.087 C 111.324 179.951,111.621 179.682,111.933 179.490 L 112.500 179.139 112.465 177.445 L 112.430 175.750 112.375 177.411 C 112.322 179.034,112.221 179.324,111.712 179.331 C 111.599 179.332,111.455 179.127,111.393 178.875 C 111.330 178.623,110.810 177.276,110.237 175.882 L 109.194 173.348 110.306 173.290 C 110.917 173.258,110.404 173.220,109.167 173.206 L 106.917 173.180 106.217 173.814 M114.667 173.277 C 116.470 173.399,118.463 173.407,118.391 173.292 C 118.349 173.223,117.324 173.180,116.115 173.197 C 114.906 173.213,114.254 173.249,114.667 173.277 M114.503 180.042 C 114.500 180.300,114.667 180.329,115.958 180.300 L 117.417 180.266 116.088 180.209 C 115.293 180.174,114.709 180.071,114.633 179.951 C 114.546 179.814,114.504 179.843,114.503 180.042 M106.595 181.412 C 106.536 181.730,106.330 182.100,106.139 182.234 C 105.678 182.557,106.087 186.421,106.642 186.975 C 107.084 187.417,111.333 187.738,111.333 187.329 C 111.333 186.916,111.826 186.333,112.176 186.333 C 112.480 186.333,112.500 186.201,112.500 184.167 L 112.500 182.000 112.012 182.000 C 111.452 182.000,111.000 181.623,111.000 181.155 C 111.000 180.854,110.862 180.833,108.852 180.833 L 106.704 180.833 106.595 181.412 M114.075 181.180 C 114.014 181.279,113.728 181.504,113.440 181.680 C 113.152 181.855,113.009 181.999,113.122 181.999 C 113.336 182.000,114.505 181.014,114.302 181.005 C 114.238 181.002,114.136 181.081,114.075 181.180 M113.008 184.561 C 113.000 186.325,113.013 186.387,113.481 186.920 C 113.745 187.221,113.991 187.557,114.027 187.665 C 114.063 187.774,114.291 187.837,114.532 187.806 L 114.971 187.750 114.230 185.917 C 113.823 184.908,113.383 183.783,113.253 183.417 C 113.021 182.765,113.016 182.791,113.008 184.561 M119.999 185.534 C 119.954 186.332,119.976 186.925,120.049 186.852 C 120.122 186.778,120.159 186.125,120.131 185.401 L 120.081 184.083 119.999 185.534 M120.525 185.365 C 120.511 186.070,120.556 186.682,120.625 186.725 C 120.694 186.767,120.729 186.378,120.703 185.859 C 120.622 184.232,120.551 184.035,120.525 185.365 M114.167 188.833 C 114.167 189.365,113.668 190.000,113.250 190.000 C 113.042 190.000,113.000 190.333,113.000 192.000 C 113.000 193.889,113.019 194.000,113.333 194.000 C 113.795 194.000,114.333 194.583,114.333 195.083 L 114.333 195.500 116.227 195.500 L 118.121 195.500 116.727 192.071 C 115.961 190.186,115.333 188.611,115.333 188.571 C 115.333 188.308,118.482 188.523,118.552 188.792 C 118.609 189.011,118.633 188.991,118.647 188.708 C 118.666 188.337,118.645 188.333,116.417 188.333 L 114.167 188.333 114.167 188.833 M111.789 191.875 C 111.684 194.516,111.671 194.432,112.152 194.174 C 112.782 193.837,112.632 189.500,111.991 189.500 C 111.932 189.500,111.840 190.569,111.789 191.875 M119.615 189.775 C 119.815 189.818,120.013 190.000,120.054 190.179 C 120.111 190.433,120.123 190.421,120.106 190.128 C 120.089 189.850,119.973 189.743,119.667 189.723 C 119.320 189.700,119.311 189.709,119.615 189.775 M115.468 195.957 C 114.176 196.007,113.965 196.061,113.510 196.460 L 113.000 196.908 113.000 199.221 C 113.000 201.446,113.016 201.554,113.417 202.030 C 113.646 202.303,113.833 202.624,113.833 202.745 C 113.833 202.869,114.075 202.992,114.394 203.029 L 114.955 203.095 116.325 199.756 C 118.064 195.517,117.979 195.826,117.394 195.868 C 117.132 195.886,116.265 195.927,115.468 195.957 M111.499 197.625 C 111.499 197.969,111.449 198.990,111.389 199.895 L 111.280 201.540 111.653 201.341 C 111.858 201.231,112.133 201.182,112.263 201.232 C 112.460 201.308,112.500 200.961,112.500 199.161 L 112.500 197.000 112.000 197.000 C 111.533 197.000,111.500 197.042,111.499 197.625 M113.918 203.995 C 113.858 204.267,113.623 204.625,113.396 204.790 C 113.012 205.071,112.987 205.175,113.034 206.335 L 113.083 207.578 113.809 205.747 C 114.208 204.740,114.572 203.823,114.618 203.708 C 114.669 203.583,114.568 203.500,114.364 203.500 C 114.125 203.500,113.995 203.645,113.918 203.995 M111.109 205.165 C 111.054 205.945,110.960 207.446,110.901 208.500 L 110.792 210.417 111.151 210.043 C 111.348 209.838,111.732 209.555,112.005 209.414 L 112.500 209.158 112.500 207.099 L 112.500 205.039 111.854 204.393 L 111.208 203.748 111.109 205.165 M110.673 212.542 L 110.680 213.250 110.922 212.691 C 111.162 212.138,111.127 211.833,110.823 211.833 C 110.737 211.833,110.670 212.152,110.673 212.542 " stroke="none" fill="#6087b4" fill-rule="evenodd"></path></g></svg>