<?xml version="1.0" standalone="no"?>
<!DOCTYPE svg PUBLIC "-//W3C//DTD SVG 20010904//EN"
 "http://www.w3.org/TR/2001/REC-SVG-20010904/DTD/svg10.dtd">
<svg version="1.0" xmlns="http://www.w3.org/2000/svg"
 width="860.000000pt" height="900.000000pt" viewBox="0 0 860.000000 900.000000"
 preserveAspectRatio="xMidYMid meet">

<g transform="translate(0.000000,900.000000) scale(0.100000,-0.100000)"
fill="#000000" stroke="none">
<path d="M4025 8581 c-93 -23 -119 -64 -149 -232 -65 -359 -76 -420 -76 -424
0 -3 -5 -5 -12 -5 -6 0 -62 -20 -124 -45 l-114 -46 -147 107 c-82 59 -178 129
-214 156 -69 50 -125 78 -156 78 -67 0 -95 -21 -305 -228 -116 -114 -217 -221
-224 -239 -18 -42 -18 -96 1 -136 8 -18 44 -75 81 -127 37 -52 104 -149 150
-216 l83 -120 -52 -121 -52 -121 -90 -16 c-49 -9 -173 -29 -274 -46 -106 -17
-197 -38 -214 -48 -40 -23 -66 -60 -77 -108 -13 -53 -13 -560 0 -603 10 -35
50 -85 82 -102 16 -9 151 -35 428 -84 132 -23 160 -36 160 -70 0 -6 18 -53 40
-105 22 -51 37 -98 33 -104 -4 -6 -75 -106 -159 -222 -84 -115 -158 -223 -164
-238 -15 -42 -12 -93 9 -134 25 -48 417 -438 454 -452 41 -15 93 -12 130 7 18
9 124 80 237 158 113 78 211 145 218 149 8 5 52 -9 105 -32 51 -23 104 -44
118 -47 19 -5 28 -15 32 -33 3 -15 24 -137 47 -272 49 -289 60 -318 133 -354
l51 -26 290 0 c283 0 292 1 331 23 67 38 78 64 114 278 64 383 61 368 84 375
12 3 64 24 116 46 73 31 99 38 115 30 12 -5 109 -73 218 -150 108 -77 210
-148 227 -156 39 -21 113 -20 154 0 40 21 423 399 444 438 10 20 14 48 11 86
-4 55 -9 63 -170 289 l-166 233 38 81 c20 45 43 99 49 120 7 20 15 37 17 37
20 0 536 93 561 101 42 14 90 69 100 116 4 21 8 167 8 324 l0 285 -27 41 c-35
53 -69 68 -218 92 -69 12 -190 32 -269 46 -79 13 -147 27 -151 32 -4 4 -13 26
-20 48 -7 22 -26 69 -42 103 -15 35 -28 71 -28 79 0 9 70 114 155 234 86 121
160 231 165 245 16 41 12 106 -9 139 -32 51 -399 422 -435 439 -38 18 -118 21
-147 6 -10 -6 -115 -79 -232 -162 -116 -84 -221 -152 -232 -151 -11 0 -67 20
-125 44 -58 24 -106 44 -107 44 -1 0 -16 86 -32 190 -56 347 -61 369 -86 406
-41 63 -57 66 -375 72 -157 3 -298 2 -315 -2z m422 -401 c6 -36 23 -139 37
-230 15 -91 31 -181 36 -202 16 -57 64 -91 188 -132 61 -21 163 -64 228 -97
128 -64 170 -72 227 -42 18 9 117 76 220 150 103 73 191 133 195 133 9 0 162
-153 162 -163 0 -4 -66 -101 -147 -215 -142 -199 -147 -209 -151 -263 -4 -53
0 -65 51 -166 30 -59 72 -161 92 -225 39 -126 59 -159 108 -184 16 -9 141 -35
276 -58 l246 -41 0 -120 0 -119 -250 -42 c-138 -22 -265 -48 -282 -57 -45 -24
-65 -59 -102 -177 -18 -57 -60 -156 -92 -218 -49 -94 -59 -122 -59 -163 0 -28
5 -60 11 -71 6 -11 72 -106 146 -211 74 -105 137 -196 139 -202 6 -16 -152
-169 -168 -163 -7 3 -100 67 -205 141 -105 74 -200 140 -211 146 -47 25 -111
13 -216 -41 -56 -28 -159 -70 -229 -94 -70 -23 -137 -50 -149 -60 -37 -34 -49
-74 -83 -277 -19 -111 -38 -222 -42 -247 l-9 -45 -116 -3 c-104 -2 -117 -1
-122 15 -3 10 -21 115 -41 233 -19 118 -39 231 -45 250 -17 62 -62 94 -198
139 -68 22 -171 66 -229 96 -112 58 -148 66 -206 41 -18 -7 -121 -75 -230
-150 -108 -75 -201 -136 -205 -136 -8 0 -123 117 -150 152 -11 14 6 43 134
219 141 195 164 235 164 289 0 13 -27 79 -59 145 -32 66 -75 172 -96 235 -20
63 -46 126 -58 138 -42 46 -46 47 -409 112 -62 11 -123 23 -135 25 -22 5 -23
9 -23 125 0 66 2 120 5 120 13 0 351 53 418 65 138 26 157 44 203 192 19 62
61 164 94 227 66 131 75 161 62 210 -6 19 -74 128 -152 242 l-142 206 83 84
84 84 195 -141 c107 -78 209 -147 227 -155 56 -24 92 -17 218 45 66 32 172 75
234 95 160 50 181 74 207 224 16 92 61 342 70 380 4 22 7 23 122 20 l117 -3
12 -65z"/>
<path d="M4190 7184 c-111 -20 -184 -41 -246 -69 -246 -112 -416 -316 -486
-582 -31 -119 -31 -301 0 -418 29 -106 109 -265 172 -342 174 -210 445 -327
720 -309 304 19 575 196 714 465 68 132 90 228 90 396 0 116 -4 155 -23 225
-45 169 -151 331 -289 446 -82 68 -241 146 -342 169 -74 17 -261 28 -310 19z
m245 -346 c71 -18 175 -80 236 -140 282 -282 159 -762 -226 -879 -189 -58
-400 1 -536 149 -187 202 -187 513 1 716 133 144 333 203 525 154z"/>
<path d="M2202 4055 c-214 -28 -305 -54 -617 -180 -252 -101 -444 -184 -690
-295 -88 -39 -176 -79 -195 -88 -19 -8 -103 -48 -186 -87 -131 -63 -154 -77
-174 -111 -50 -81 -21 -192 61 -234 62 -32 113 -26 225 26 480 224 748 342
1128 496 310 126 360 137 637 145 400 11 648 -41 835 -177 33 -23 129 -113
214 -199 175 -178 227 -216 363 -271 327 -131 647 -190 1172 -215 160 -8 308
-19 330 -26 108 -31 198 -105 211 -174 11 -62 0 -162 -22 -192 -59 -79 -146
-116 -311 -134 -166 -17 -1151 -6 -1302 15 -203 28 -633 112 -753 148 -70 21
-165 -28 -194 -99 -31 -74 -2 -168 65 -206 67 -40 552 -142 837 -176 145 -18
243 -22 640 -25 512 -4 768 4 884 29 123 27 223 80 532 283 1412 930 1454 957
1648 1024 89 32 216 47 284 34 63 -12 136 -92 136 -148 0 -88 -145 -249 -340
-379 -349 -232 -1135 -745 -1770 -1154 -36 -23 -112 -72 -170 -110 -385 -249
-791 -495 -915 -555 -117 -56 -191 -73 -320 -74 -126 0 -222 18 -360 71 -78
29 -752 362 -1020 503 -334 176 -699 351 -780 375 -176 52 -313 41 -480 -39
-73 -34 -563 -343 -602 -379 -32 -29 -57 -100 -50 -142 14 -88 96 -152 181
-143 48 6 54 9 341 194 256 165 318 197 395 202 105 8 106 7 785 -338 912
-464 1014 -514 1154 -562 208 -71 446 -95 616 -64 179 34 295 84 543 234 446
271 992 620 1935 1236 482 316 819 545 893 607 240 201 333 417 274 635 -38
142 -123 245 -259 314 -69 34 -180 60 -259 60 -76 0 -215 -24 -292 -51 l-60
-21 -74 69 c-176 165 -453 229 -701 164 -39 -10 -77 -21 -85 -25 -9 -4 -36 11
-70 39 -74 62 -237 142 -330 162 -201 43 -459 4 -670 -102 -55 -28 -493 -298
-964 -594 -72 -44 -137 -81 -145 -81 -58 1 -344 84 -465 135 -25 11 -88 68
-183 165 -157 161 -264 245 -416 322 -93 48 -296 118 -397 137 -206 40 -503
51 -698 26z m3943 -357 c32 -12 60 -27 61 -33 2 -5 -132 -93 -298 -195 -165
-102 -345 -213 -399 -247 l-99 -63 -73 16 c-39 9 -145 19 -235 24 -90 4 -166
10 -169 13 -2 3 12 16 34 30 668 417 647 404 755 441 106 36 169 46 274 41 65
-2 107 -10 149 -27z m830 -163 c28 -8 60 -23 73 -33 l23 -18 -108 -71 c-59
-39 -193 -127 -298 -195 -104 -69 -257 -169 -340 -223 -412 -270 -467 -306
-470 -303 -1 2 -10 30 -20 63 -19 69 -47 126 -82 173 -14 18 -23 35 -22 37 5
4 634 394 808 501 35 21 101 51 145 67 71 24 91 27 161 23 44 -3 103 -12 130
-21z"/>
</g>
</svg>
